<?xml version="1.0" encoding="utf-8"?>
<!-- Generator: Adobe Illustrator 27.0.0, SVG Export Plug-In . SVG Version: 6.00 Build 0)  -->
<svg version="1.1" id="_圖層_1" xmlns="http://www.w3.org/2000/svg" xmlns:xlink="http://www.w3.org/1999/xlink" x="0px" y="0px"
	 viewBox="0 0 159.2 44" style="enable-background:new 0 0 159.2 44;" xml:space="preserve">
<style type="text/css">
	.st0{fill:#0A61A7;}
	.st1{fill:#FFFFFF;}
	.st2{fill:#BDC3C4;}
	.st3{fill:#8F939F;}
</style>
<rect class="st0" width="159.3" height="44.1"/>
<g>
	<path class="st1" d="M47.7,12.9c0.7,3.7,1.4,7.4,2.1,11.3c0.6-0.9,1-1.6,1.4-2.3c1.7-2.7,3.4-5.4,5-8.1c0.4-0.6,0.8-0.9,1.5-0.8
		c0.9,0.1,1.9,0,2.9,0c-1.2,5.5-2.3,10.8-3.5,16.2h-3.1c0.6-3.1,1.3-6.1,1.9-9c0,0-0.1,0-0.1-0.1c-1.4,2.2-2.7,4.4-4.1,6.6
		c-0.1,0.2-0.2,0.3-0.3,0.5c-0.9,1.5-2.3,2.2-4.2,2.1c-0.6-3-1.2-6.1-1.9-9.1c0,0-0.1,0-0.2,0c-0.5,2.3-1,4.6-1.5,6.8
		c-0.6,2.7-0.6,2.7-3.6,2.3c0.4-2,0.8-4,1.2-6c0.6-3,1.4-6.1,2-9.1c0.2-0.8,0.5-1,1.3-1C45.7,13,46.7,12.9,47.7,12.9L47.7,12.9z"/>
	<path class="st1" d="M103.7,29.2c-1.4,0-2.9,0-4.3,0c-1.7,0-2.4-0.8-2-2.4c0.8-3.8,1.5-7.5,2.4-11.2c0.4-1.9,1.4-2.6,3.4-2.6
		c2.7,0,5.4,0,8.1,0c1.9,0,2.5,0.6,2.2,2.5c-0.7,3.9-1.6,7.7-2.5,11.5c-0.4,1.6-1.3,2.2-3,2.2C106.5,29.2,105.1,29.2,103.7,29.2
		L103.7,29.2z M104.3,26c0.7,0,1.4,0,2.2,0c0.7,0,1.1-0.3,1.3-1c0.6-2.6,1.1-5.2,1.7-7.8c0.2-0.8-0.1-1.2-0.9-1.1
		c-1.4,0-2.8-0.1-4.2,0.1c-0.4,0-1.1,0.5-1.2,0.9c-0.6,2.7-1.1,5.3-1.7,8c-0.2,0.7,0.1,1,0.8,1C102.9,26,103.6,26,104.3,26L104.3,26
		z"/>
	<path class="st1" d="M84.3,12.9c3.7,0,7.4,0,11,0c1.3,0,2,0.9,1.8,2.2c-0.3,1.4-0.5,2.9-0.9,4.3c-0.3,0.8-0.9,1.4-1.5,2.2
		c0.9,0.4,1,1.2,0.7,2.3c-0.4,1.7-0.7,3.4-1.1,5.2h-3.7c0.3-1.6,0.6-3.3,1-4.9c0.2-1-0.1-1.2-1-1.2c-1.6,0-3.2,0-4.8,0
		c-0.4,2-0.9,4-1.3,6h-3.7c0.8-4,1.7-7.9,2.5-11.8H87c-0.2,1-0.3,2-0.6,3.1c1.8,0,3.4,0,5.1,0c0.2,0,0.6-0.2,0.6-0.4
		c0.3-1.1,0.6-2.2,0.8-3.4c0-0.1-0.7-0.5-1-0.5c-2.4-0.1-4.7,0-7.1,0h-1.2C83.8,15,84.1,14,84.3,12.9L84.3,12.9z"/>
	<path class="st1" d="M129.3,12.9c-0.2,1.1-0.4,2-0.6,3.1c-2.6,0-5.1,0-7.7,0c-0.6,0-1.4,0.1-1.6,0.4c-0.4,0.8-0.5,1.7-0.6,2.6
		c0,0.1,0.6,0.4,0.9,0.4c2,0,4,0,6,0c1.6,0,2.3,0.7,2,2.2c-0.3,1.7-0.7,3.4-1.1,5c-0.4,1.7-1.4,2.4-3.2,2.4c-3.4,0-6.8,0-10.4,0
		c0.2-1.1,0.4-2,0.6-3.1c1.5,0,3,0,4.5,0c1.3,0,2.6,0,4,0c0.7,0,1.1-0.2,1.3-1c0.8-3.6,0.7-2.8-2.2-2.9c-1.5,0-3,0-4.5,0
		c-1.3,0-1.9-0.6-1.7-1.9c0.3-1.9,0.7-3.7,1.2-5.5c0.3-1.1,1.2-1.8,2.3-1.8C122,12.9,125.6,12.9,129.3,12.9L129.3,12.9z"/>
	<path class="st1" d="M142.7,29.2c0.2-1.1,0.4-2.1,0.6-3.1c2.7,0,5.4-0.1,8,0c1.2,0,1.6-0.4,1.8-1.5c0.4-2.6,0.7-2.4-1.9-2.4
		c-1.6,0-3.2,0-4.8,0c-1.5,0-2.1-0.6-1.9-2.1c0.3-1.7,0.7-3.5,1.2-5.1c0.3-1.2,1.2-2,2.5-2c3.6-0.1,7.1,0,10.9,0
		c-0.2,1.1-0.4,2-0.6,3.1h-2.2c-1.6,0-3.2,0-4.9,0c-2.5,0-2.1-0.4-2.8,2.4c-0.2,0.8,0,1,0.8,1c2,0,4,0,6,0c1.7,0,2.3,0.7,2,2.3
		c-0.3,1.6-0.7,3.2-1.1,4.8c-0.5,1.9-1.4,2.5-3.3,2.6C149.7,29.2,146.3,29.2,142.7,29.2L142.7,29.2z"/>
	<path class="st1" d="M81.9,12.9c-0.2,1.1-0.4,2.1-0.7,3.1c-2.3,0-4.6,0-6.9,0c-1.1,0-1.5,0.3-1.7,1.4c-0.4,2.3-1,4.5-1.5,6.8
		c-0.3,1.4-0.2,1.5,1.3,1.5c2.2,0,4.4,0,6.8,0c-0.2,1.1-0.4,2.2-0.7,3.3c-0.3,0-0.7,0.1-1,0.1c-2.9,0-5.7,0-8.6,0
		c-1.6,0-2.3-0.8-2-2.4c0.8-3.8,1.5-7.5,2.4-11.2c0.4-1.9,1.4-2.6,3.4-2.6C75.8,12.9,78.8,12.9,81.9,12.9L81.9,12.9z"/>
	<path class="st1" d="M136.9,19.4c1.4-2,2.8-3.7,4-5.6c0.5-0.7,1-1,1.8-0.9c0.8,0.1,1.6,0,2.6,0c-1.4,1.9-2.6,3.7-4.1,5.3
		c-2.7,2.8-4,6.2-4.4,10c-0.1,0.8-0.4,1.1-1.2,1c-0.9-0.1-1.7,0-2.7,0c0.4-2,0.9-3.9,1.2-5.8c0.1-0.5,0.1-1.1-0.1-1.6
		c-0.9-2.9-1.9-5.7-3-8.8c1.3,0,2.4,0,3.6,0c0.2,0,0.5,0.5,0.6,0.8C135.7,15.5,136.2,17.3,136.9,19.4L136.9,19.4z"/>
	<path class="st1" d="M63.8,29.1h-3.7c1.2-5.4,2.3-10.8,3.4-16.2h3.7C66.1,18.4,64.9,23.7,63.8,29.1z"/>
</g>
<g>
	<path class="st1" d="M26,4.4c0,2.4-2.1,4.4-4.7,4.4s-4.7-2-4.7-4.4S18.7,0,21.3,0S26,2,26,4.4z"/>
	<path class="st1" d="M32.4,27.7c0.7-1.2,0.7-2.3,0.7-2.9c0-1.4-0.7-4.8-6.3-6.6c0,0,4.2,3.8,0.2,6.1c0,0-4.3,2.4-7.9-2.9
		c0,0-0.9,3.7,0.6,8.5c0,0,5.8,2.8,9.9,0.7C31.1,29.8,31.9,28.6,32.4,27.7z"/>
	<path class="st2" d="M4.2,10L0,18.3l11.1-0.9c0,0-6.7,9.2-5.6,26.6l10.4-1.4l4.7-7.5c0,0-9.9-3.5-7.4-17.2c0,0,3.1-6.1,9-9.1
		L4.2,10L4.2,10z"/>
	<path class="st3" d="M31.4,6.3L31.4,6.3c-2.9,0.4-5.7,1-8.4,2c-1.5,0.6-3,1.6-4.3,2.5C17.1,12,16,13.2,15.1,15
		c-1,2.3-1.5,4.8-1.2,7.3c0.5,3.4,2.8,5.9,5.7,7.5c0,0-0.6-4.5-0.6-7.7c0-0.6,0.1-1.2,0.2-1.6c0.5-2.1,2.5-6.6,10.8-7.8
		c0,0,4.9-6.8,4.9-6.8C35,5.9,32.3,6.2,31.4,6.3L31.4,6.3z"/>
	<path class="st1" d="M22.3,8.6c0,0-0.2-0.1-0.4,0c-2,0.6-10.9,4-12.6,16.9c0,0-1.6,8.9,6.6,17.1l4.7-7.5c-0.1,0.1-1.3-0.6-1.3-0.7
		c-1.1-0.6-2-1.5-2.9-2.4c-1.2-1.4-2.1-3-2.7-4.8c-0.8-2.5-0.9-5.1-0.7-7.7c0.1-1.3,0.6-2.4,1.3-3.5c0.7-0.9,1.4-1.8,2.1-2.7
		C18.1,11.6,20,9.8,22.3,8.6L22.3,8.6z"/>
</g>
</svg>
