<?xml version="1.0" encoding="utf-8"?>
<!-- Generator: Adobe Illustrator 27.0.0, SVG Export Plug-In . SVG Version: 6.00 Build 0)  -->
<svg version="1.1" id="_圖層_1" xmlns="http://www.w3.org/2000/svg" xmlns:xlink="http://www.w3.org/1999/xlink" x="0px" y="0px"
	 viewBox="0 0 36.5 44" style="enable-background:new 0 0 36.5 44;" xml:space="preserve">
<style type="text/css">
	.st0{fill:#004F94;}
	.st1{fill:#BDC3C4;}
	.st2{fill:#8F939F;}
</style>
<g>
	<path class="st0" d="M26,4.4c0,2.4-2.1,4.4-4.7,4.4s-4.7-2-4.7-4.4S18.7,0,21.3,0S26,2,26,4.4z"/>
	<path class="st0" d="M32.4,27.7c0.7-1.2,0.7-2.3,0.7-2.9c0-1.4-0.7-4.8-6.3-6.6c0,0,4.2,3.8,0.2,6.1c0,0-4.3,2.4-7.9-2.9
		c0,0-0.9,3.7,0.6,8.5c0,0,5.8,2.8,9.9,0.7C31.1,29.8,31.9,28.6,32.4,27.7z"/>
	<path class="st1" d="M4.2,10L0,18.3l11.1-0.9c0,0-6.7,9.2-5.6,26.6l10.4-1.4l4.7-7.5c0,0-9.9-3.5-7.4-17.2c0,0,3.1-6.1,9-9.1
		L4.2,10L4.2,10z"/>
	<path class="st2" d="M31.4,6.3L31.4,6.3c-2.9,0.4-5.7,1-8.4,2c-1.5,0.6-3,1.6-4.3,2.5C17.1,12,16,13.2,15.1,15
		c-1,2.3-1.5,4.8-1.2,7.3c0.5,3.4,2.8,5.9,5.7,7.5c0,0-0.6-4.5-0.6-7.7c0-0.6,0.1-1.2,0.2-1.6c0.5-2.1,2.5-6.6,10.8-7.8
		c0,0,4.9-6.8,4.9-6.8C35,5.9,32.3,6.2,31.4,6.3L31.4,6.3z"/>
	<path class="st0" d="M22.3,8.6c0,0-0.2-0.1-0.4,0c-2,0.6-10.9,4-12.6,16.9c0,0-1.6,8.9,6.6,17.1l4.7-7.5c-0.1,0.1-1.3-0.6-1.3-0.7
		c-1.1-0.6-2-1.5-2.9-2.4c-1.2-1.4-2.1-3-2.7-4.8c-0.8-2.5-0.9-5.1-0.7-7.7c0.1-1.3,0.6-2.4,1.3-3.5c0.7-0.9,1.4-1.8,2.1-2.7
		C18.1,11.6,20,9.8,22.3,8.6L22.3,8.6z"/>
</g>
</svg>
