<svg viewBox="0 0 159.18 43.99" xmlns="http://www.w3.org/2000/svg" xmlns:xlink="http://www.w3.org/1999/xlink" id="_圖層_1" overflow="hidden"><defs></defs><g><path d="M47.72 12.91C48.42 16.63 49.11 20.26 49.85 24.18 50.43 23.25 50.86 22.57 51.29 21.88 52.98 19.17 54.69 16.47 56.34 13.74 56.72 13.11 57.12 12.84 57.86 12.89 58.79 12.96 59.72 12.91 60.75 12.91 59.58 18.39 58.44 23.74 57.3 29.11L54.24 29.11C54.89 26.06 55.53 23.06 56.17 20.07 56.12 20.05 56.07 20.02 56.02 20 54.65 22.19 53.28 24.38 51.91 26.57 51.81 26.73 51.72 26.89 51.62 27.05 50.7 28.5233 49.2867 29.2067 47.38 29.1 46.76 26.08 46.14 23.01 45.51 19.95 45.46 19.95 45.41 19.94 45.35 19.93 44.86 22.21 44.38 24.49 43.88 26.76 43.28 29.44 43.27 29.44 40.3 29.04 40.71 27.02 41.12 25.01 41.54 23.01 42.19 19.97 42.9 16.94 43.49 13.88 43.65 13.06 43.97 12.84 44.75 12.89 45.72 12.95 46.7 12.91 47.73 12.91Z" fill="#004F94"/><path d="M103.65 29.16C102.22 29.16 100.79 29.18 99.36 29.16 97.66 29.14 96.99 28.38 97.32 26.74 98.08 22.99 98.85 19.25 99.68 15.52 100.1 13.62 101.08 12.92 103.07 12.92 105.78 12.92 108.49 12.92 111.21 12.92 113.08 12.92 113.75 13.56 113.4 15.41 112.67 19.27 111.83 23.12 110.93 26.94 110.55 28.53 109.58 29.14 107.95 29.15 106.52 29.17 105.09 29.15 103.66 29.15ZM104.28 26.01C105 26.01 105.71 26 106.43 26.01 107.15 26.03 107.56 25.69 107.71 25 108.27 22.4 108.82 19.8 109.37 17.2 109.53 16.45 109.26 16.05 108.45 16.06 107.06 16.08 105.66 15.99 104.28 16.11 103.85 16.14 103.2 16.62 103.11 17 102.47 19.66 101.97 22.34 101.38 25.01 101.22 25.74 101.49 26 102.16 26 102.88 26 103.59 26 104.31 26Z" fill="#004F94"/><path d="M84.27 12.92C88 12.92 91.65 12.89 95.3 12.94 96.62 12.96 97.29 13.86 97.06 15.15 96.8 16.59 96.57 18.05 96.12 19.43 95.86 20.22 95.19 20.87 94.67 21.63 95.58 22.01 95.67 22.85 95.4 23.91 94.98 25.61 94.68 27.34 94.32 29.11L90.6 29.11C90.94 27.47 91.22 25.85 91.62 24.26 91.86 23.31 91.55 23.04 90.64 23.06 89.06 23.1 87.48 23.07 85.83 23.07 85.4 25.09 84.97 27.06 84.54 29.09L80.83 29.09C81.68 25.12 82.52 21.19 83.36 17.26L87.01 17.26C86.83 18.28 86.66 19.25 86.46 20.36 88.21 20.36 89.89 20.37 91.56 20.34 91.78 20.34 92.14 20.14 92.19 19.97 92.51 18.86 92.79 17.73 92.97 16.59 92.99 16.48 92.3 16.1 91.94 16.1 89.57 16.05 87.2 16.08 84.82 16.08L83.59 16.08C83.83 14.98 84.05 13.98 84.28 12.94Z" fill="#004F94"/><path d="M129.32 12.93C129.11 14 128.92 14.97 128.71 16.06 126.13 16.06 123.58 16.04 121.02 16.08 120.46 16.08 119.57 16.14 119.4 16.47 118.99 17.24 118.89 18.18 118.76 19.06 118.75 19.14 119.34 19.43 119.65 19.44 121.65 19.48 123.64 19.45 125.64 19.46 127.25 19.46 127.91 20.16 127.63 21.69 127.32 23.39 126.96 25.07 126.53 26.74 126.08 28.48 125.15 29.15 123.34 29.15 119.91 29.16 116.49 29.15 112.89 29.15 113.1 28.09 113.29 27.12 113.51 26 114.99 26 116.49 26 117.98 26 119.3 26 120.62 25.98 121.94 26 122.63 26.01 123.05 25.8 123.22 25.05 124.02 21.46 123.94 22.2 121.06 22.15 119.55 22.12 118.04 22.16 116.54 22.14 115.21 22.12 114.61 21.56 114.81 20.25 115.1 18.4 115.52 16.57 116.02 14.77 116.32 13.67 117.2 12.96 118.36 12.94 121.97 12.89 125.58 12.92 129.33 12.92Z" fill="#004F94"/><path d="M142.74 29.16C142.96 28.07 143.17 27.09 143.39 26.01 146.1 26.01 148.77 25.95 151.43 26.04 152.59 26.08 153.05 25.63 153.23 24.56 153.66 21.97 153.95 22.16 151.3 22.16 149.72 22.16 148.13 22.17 146.55 22.16 145.03 22.15 144.43 21.57 144.68 20.07 144.96 18.33 145.36 16.61 145.83 14.92 146.16 13.73 147.04 12.96 148.3 12.95 151.88 12.9 155.45 12.93 159.19 12.93 158.98 13.99 158.79 14.96 158.58 16.07L156.36 16.07C154.74 16.07 153.12 16.06 151.5 16.07 148.98 16.09 149.35 15.69 148.68 18.47 148.49 19.25 148.72 19.48 149.48 19.47 151.48 19.44 153.47 19.46 155.47 19.47 157.13 19.47 157.79 20.2 157.49 21.78 157.18 23.4 156.83 25.01 156.42 26.61 155.93 28.52 155.06 29.16 153.12 29.17 149.7 29.17 146.27 29.17 142.73 29.17Z" fill="#004F94"/><path d="M81.93 12.91C81.7 13.99 81.49 14.98 81.26 16.06 78.95 16.06 76.66 16.1 74.37 16.04 73.31 16.01 72.83 16.36 72.63 17.44 72.21 19.72 71.64 21.98 71.14 24.25 70.83 25.66 70.94 25.77 72.44 25.77 74.66 25.77 76.88 25.77 79.2 25.77 78.97 26.91 78.76 27.96 78.53 29.09 78.2 29.11 77.87 29.15 77.54 29.15 74.68 29.15 71.81 29.17 68.95 29.15 67.33 29.14 66.64 28.33 66.96 26.77 67.72 23.02 68.5 19.28 69.33 15.55 69.75 13.64 70.73 12.92 72.7 12.91 75.75 12.91 78.8 12.91 81.92 12.91Z" fill="#004F94"/><path d="M136.86 19.37C138.3 17.4 139.64 15.64 140.88 13.82 141.37 13.1 141.88 12.82 142.73 12.9 143.5 12.97 144.29 12.91 145.3 12.91 143.85 14.8 142.67 16.65 141.19 18.21 138.51 21.04 137.22 24.41 136.76 28.17 136.66 29.01 136.31 29.24 135.53 29.18 134.67 29.12 133.81 29.17 132.84 29.17 133.26 27.16 133.69 25.26 134.04 23.35 134.14 22.83 134.12 22.23 133.96 21.73 133.02 18.85 132.02 15.99 130.98 12.93 132.25 12.93 133.4 12.89 134.53 12.97 134.75 12.99 135.02 13.45 135.12 13.76 135.7 15.54 136.24 17.34 136.87 19.39Z" fill="#004F94"/><path d="M63.79 29.12 60.07 29.12C61.22 23.72 62.36 18.36 63.5 12.97L67.23 12.97C66.09 18.35 64.95 23.69 63.79 29.12Z" fill="#004F94"/></g><g><path d="M25.98 4.36C25.98 6.77 23.89 8.72 21.31 8.72 18.73 8.72 16.64 6.77 16.64 4.36 16.64 1.95 18.73 0 21.31 0 23.89 0 25.98 1.95 25.98 4.36Z" fill="#004F94"/><path d="M32.36 27.71C33.02 26.54 33.07 25.45 33.03 24.84 33 23.45 32.3 20.07 26.68 18.2 26.68 18.2 30.85 21.99 26.93 24.27 26.93 24.27 22.63 26.63 19.03 21.35 19.03 21.35 18.11 25.08 19.66 29.83 19.66 29.83 25.46 32.62 29.51 30.52 31.06 29.78 31.92 28.55 32.36 27.71Z" fill="#004F94"/><path d="M4.23 9.99 0 18.27 11.08 17.37C11.08 17.37 4.35 26.57 5.5 44L15.87 42.61 20.61 35.06C20.61 35.06 10.75 31.55 13.21 17.81 13.21 17.81 16.34 11.74 22.22 8.67L4.23 10.01Z" fill="#BDC3C4"/><path d="M31.43 6.31C31.43 6.31 31.43 6.31 31.43 6.31 28.58 6.7 25.74 7.3 23.04 8.3 21.55 8.85 20.08 9.88 18.78 10.8 17.13 11.98 15.99 13.21 15.15 15.03 14.11 17.28 13.65 19.81 13.98 22.3 14.43 25.67 16.79 28.2 19.66 29.82 19.66 29.82 19.08 25.28 19.09 22.14 19.14 21.49 19.2 20.96 19.26 20.58 19.76 18.45 21.79 13.94 30.1 12.75 30.1 12.75 35.03 5.93 35.03 5.92 35.03 5.92 32.28 6.15 31.44 6.29Z" fill="#8F939F"/><path d="M22.27 8.62C22.27 8.62 22.1 8.54 21.85 8.62 19.86 9.2 10.97 12.6 9.23 25.54 9.23 25.54 7.67 34.46 15.87 42.61 15.87 42.61 20.61 35.06 20.61 35.06 20.56 35.14 19.35 34.43 19.28 34.39 18.21 33.74 17.24 32.91 16.41 31.96 15.2 30.58 14.31 28.94 13.74 27.2 12.94 24.73 12.79 22.09 13.01 19.51 13.13 18.19 13.57 17.11 14.32 16.04 14.97 15.11 15.68 14.23 16.44 13.39 18.09 11.57 19.97 9.77 22.28 8.64Z" fill="#004F94"/></g></svg>