<?xml version="1.0" encoding="utf-8"?>
<!-- Generator: Adobe Illustrator 27.0.0, SVG Export Plug-In . SVG Version: 6.00 Build 0)  -->
<svg version="1.1" id="_圖層_1" xmlns="http://www.w3.org/2000/svg" xmlns:xlink="http://www.w3.org/1999/xlink" x="0px" y="0px"
	 viewBox="0 0 119.7 20.3" style="enable-background:new 0 0 119.7 20.3;" xml:space="preserve">
<style type="text/css">
	.st0{fill:#004F94;}
</style>
<g>
	<path class="st0" d="M8.2,1.9c0.7,3.7,1.4,7.4,2.1,11.3c0.6-0.9,1-1.6,1.4-2.3c1.7-2.7,3.4-5.4,5-8.1c0.4-0.6,0.8-0.9,1.5-0.8
		c0.9,0.1,1.9,0,2.9,0c-1.2,5.5-2.3,10.8-3.5,16.2h-3.1c0.6-3.1,1.3-6.1,1.9-9c0,0-0.1,0-0.1-0.1c-1.4,2.2-2.7,4.4-4.1,6.6
		c-0.1,0.2-0.2,0.3-0.3,0.5c-0.9,1.5-2.3,2.2-4.2,2.1C7.3,15.1,6.6,12,6,9c0,0-0.1,0-0.2,0c-0.5,2.3-1,4.6-1.5,6.8
		c-0.6,2.7-0.6,2.7-3.6,2.3c0.4-2,0.8-4,1.2-6c0.6-3,1.4-6.1,2-9.1c0.2-0.8,0.5-1,1.3-1C6.2,2,7.2,1.9,8.2,1.9L8.2,1.9z"/>
	<path class="st0" d="M64.2,18.2c-1.4,0-2.9,0-4.3,0c-1.7,0-2.4-0.8-2-2.4c0.8-3.8,1.5-7.5,2.4-11.2c0.4-1.9,1.4-2.6,3.4-2.6
		c2.7,0,5.4,0,8.1,0c1.9,0,2.5,0.6,2.2,2.5c-0.7,3.9-1.6,7.7-2.5,11.5c-0.4,1.6-1.3,2.2-3,2.2C67,18.2,65.6,18.2,64.2,18.2
		L64.2,18.2z M64.8,15c0.7,0,1.4,0,2.2,0c0.7,0,1.1-0.3,1.3-1c0.6-2.6,1.1-5.2,1.7-7.8c0.2-0.8-0.1-1.2-0.9-1.1
		c-1.4,0-2.8-0.1-4.2,0.1c-0.4,0-1.1,0.5-1.2,0.9c-0.6,2.7-1.1,5.3-1.7,8c-0.2,0.7,0.1,1,0.8,1C63.4,15,64.1,15,64.8,15L64.8,15z"/>
	<path class="st0" d="M44.8,1.9c3.7,0,7.4,0,11,0c1.3,0,2,0.9,1.8,2.2c-0.3,1.4-0.5,2.9-0.9,4.3c-0.3,0.8-0.9,1.4-1.5,2.2
		c0.9,0.4,1,1.2,0.7,2.3c-0.4,1.7-0.7,3.4-1.1,5.2h-3.7c0.3-1.6,0.6-3.3,1-4.9c0.2-1-0.1-1.2-1-1.2c-1.6,0-3.2,0-4.8,0
		c-0.4,2-0.9,4-1.3,6h-3.7c0.8-4,1.7-7.9,2.5-11.8h3.7c-0.2,1-0.3,2-0.6,3.1c1.8,0,3.4,0,5.1,0c0.2,0,0.6-0.2,0.6-0.4
		c0.3-1.1,0.6-2.2,0.8-3.4c0-0.1-0.7-0.5-1-0.5c-2.4-0.1-4.7,0-7.1,0h-1.2C44.3,4,44.6,3,44.8,1.9L44.8,1.9z"/>
	<path class="st0" d="M89.8,1.9c-0.2,1.1-0.4,2-0.6,3.1c-2.6,0-5.1,0-7.7,0c-0.6,0-1.4,0.1-1.6,0.4c-0.4,0.8-0.5,1.7-0.6,2.6
		c0,0.1,0.6,0.4,0.9,0.4c2,0,4,0,6,0c1.6,0,2.3,0.7,2,2.2c-0.3,1.7-0.7,3.4-1.1,5c-0.4,1.7-1.4,2.4-3.2,2.4c-3.4,0-6.8,0-10.4,0
		c0.2-1.1,0.4-2,0.6-3.1c1.5,0,3,0,4.5,0c1.3,0,2.6,0,4,0c0.7,0,1.1-0.2,1.3-1c0.8-3.6,0.7-2.8-2.2-2.9c-1.5,0-3,0-4.5,0
		c-1.3,0-1.9-0.6-1.7-1.9c0.3-1.9,0.7-3.7,1.2-5.5c0.3-1.1,1.2-1.8,2.3-1.8C82.5,1.9,86.1,1.9,89.8,1.9L89.8,1.9z"/>
	<path class="st0" d="M103.2,18.2c0.2-1.1,0.4-2.1,0.6-3.1c2.7,0,5.4-0.1,8,0c1.2,0,1.6-0.4,1.8-1.5c0.4-2.6,0.7-2.4-1.9-2.4
		c-1.6,0-3.2,0-4.8,0c-1.5,0-2.1-0.6-1.9-2.1c0.3-1.7,0.7-3.5,1.2-5.1c0.3-1.2,1.2-2,2.5-2c3.6-0.1,7.1,0,10.9,0
		c-0.2,1.1-0.4,2-0.6,3.1h-2.2c-1.6,0-3.2,0-4.9,0c-2.5,0-2.1-0.4-2.8,2.4c-0.2,0.8,0,1,0.8,1c2,0,4,0,6,0c1.7,0,2.3,0.7,2,2.3
		c-0.3,1.6-0.7,3.2-1.1,4.8c-0.5,1.9-1.4,2.5-3.3,2.6C110.2,18.2,106.8,18.2,103.2,18.2L103.2,18.2z"/>
	<path class="st0" d="M42.4,1.9C42.2,3,42,4,41.8,5.1c-2.3,0-4.6,0-6.9,0c-1.1,0-1.5,0.3-1.7,1.4c-0.4,2.3-1,4.5-1.5,6.8
		c-0.3,1.4-0.2,1.5,1.3,1.5c2.2,0,4.4,0,6.8,0c-0.2,1.1-0.4,2.2-0.7,3.3c-0.3,0-0.7,0.1-1,0.1c-2.9,0-5.7,0-8.6,0
		c-1.6,0-2.3-0.8-2-2.4C28.2,12,29,8.3,29.8,4.6c0.4-1.9,1.4-2.6,3.4-2.6C36.2,1.9,39.3,1.9,42.4,1.9L42.4,1.9z"/>
	<path class="st0" d="M97.4,8.4c1.4-2,2.8-3.7,4-5.6c0.5-0.7,1-1,1.8-0.9c0.8,0.1,1.6,0,2.6,0c-1.4,1.9-2.6,3.7-4.1,5.3
		c-2.7,2.8-4,6.2-4.4,10c-0.1,0.8-0.4,1.1-1.2,1c-0.9-0.1-1.7,0-2.7,0c0.4-2,0.9-3.9,1.2-5.8c0.1-0.5,0.1-1.1-0.1-1.6
		c-0.9-2.9-1.9-5.7-3-8.8c1.3,0,2.4,0,3.6,0c0.2,0,0.5,0.5,0.6,0.8C96.2,4.5,96.7,6.3,97.4,8.4L97.4,8.4z"/>
	<path class="st0" d="M24.3,18.1h-3.7C21.7,12.7,22.9,7.4,24,2h3.7C26.6,7.4,25.4,12.7,24.3,18.1z"/>
</g>
</svg>
