<?xml version="1.0" encoding="utf-8" ?>
<svg baseProfile="full" height="560px" version="1.1" viewBox="0 0 960 560" width="960px" xmlns="http://www.w3.org/2000/svg" xmlns:ev="http://www.w3.org/2001/xml-events" xmlns:xlink="http://www.w3.org/1999/xlink"><defs /><circle cx="333" cy="514" fill="red" r="8" /><circle cx="207" cy="504" fill="red" r="8" /><circle cx="867" cy="475" fill="red" r="8" /><circle cx="96" cy="475" fill="red" r="8" /><circle cx="331" cy="428" fill="red" r="8" /><circle cx="111" cy="428" fill="red" r="8" /><circle cx="611" cy="432" fill="red" r="8" /><circle cx="560" cy="432" fill="red" r="8" /><circle cx="574" cy="410" fill="red" r="8" /><circle cx="914" cy="408" fill="red" r="8" /><circle cx="207" cy="408" fill="red" r="8" /><circle cx="837" cy="397" fill="red" r="8" /><circle cx="658" cy="400" fill="red" r="8" /><circle cx="608" cy="371" fill="red" r="8" /><circle cx="274" cy="369" fill="red" r="8" /><circle cx="167" cy="373" fill="red" r="8" /><circle cx="133" cy="361" fill="red" r="8" /><circle cx="801" cy="383" fill="red" r="8" /><circle cx="421" cy="344" fill="red" r="8" /><circle cx="263" cy="346" fill="red" r="8" /><circle cx="858" cy="363" fill="red" r="8" /><circle cx="566" cy="330" fill="red" r="8" /><circle cx="312" cy="332" fill="red" r="8" /><circle cx="167" cy="334" fill="red" r="8" /><circle cx="788" cy="332" fill="red" r="8" /><circle cx="604" cy="326" fill="red" r="8" /><circle cx="280" cy="328" fill="red" r="8" /><circle cx="137" cy="305" fill="red" r="8" /><circle cx="596" cy="293" fill="red" r="8" /><circle cx="557" cy="293" fill="red" r="8" /><circle cx="272" cy="293" fill="red" r="8" /><circle cx="186" cy="291" fill="red" r="8" /><circle cx="167" cy="289" fill="red" r="8" /><circle cx="694" cy="289" fill="red" r="8" /><circle cx="653" cy="293" fill="red" r="8" /><circle cx="109" cy="281" fill="red" r="8" /><circle cx="402" cy="283" fill="red" r="8" /><circle cx="544" cy="270" fill="red" r="8" /><circle cx="431" cy="270" fill="red" r="8" /><circle cx="263" cy="270" fill="red" r="8" /><circle cx="192" cy="268" fill="red" r="8" /><circle cx="756" cy="315" fill="red" r="8" /><circle cx="594" cy="252" fill="red" r="8" /><circle cx="314" cy="252" fill="red" r="8" /><circle cx="559" cy="252" fill="red" r="8" /><circle cx="278" cy="252" fill="red" r="8" /><circle cx="656" cy="233" fill="red" r="8" /><circle cx="811" cy="240" fill="red" r="8" /><circle cx="698" cy="227" fill="red" r="8" /><circle cx="316" cy="217" fill="red" r="8" /><circle cx="596" cy="217" fill="red" r="8" /><circle cx="557" cy="217" fill="red" r="8" /><circle cx="414" cy="215" fill="red" r="8" /><circle cx="378" cy="215" fill="red" r="8" /><circle cx="274" cy="217" fill="red" r="8" /><circle cx="192" cy="207" fill="red" r="8" /><circle cx="760" cy="203" fill="red" r="8" /><circle cx="263" cy="194" fill="red" r="8" /><circle cx="811" cy="178" fill="red" r="8" /><circle cx="754" cy="172" fill="red" r="8" /><circle cx="594" cy="176" fill="red" r="8" /><circle cx="382" cy="178" fill="red" r="8" /><circle cx="314" cy="176" fill="red" r="8" /><circle cx="559" cy="176" fill="red" r="8" /><circle cx="414" cy="176" fill="red" r="8" /><circle cx="278" cy="176" fill="red" r="8" /><circle cx="758" cy="155" fill="red" r="8" /><circle cx="557" cy="141" fill="red" r="8" /><circle cx="274" cy="141" fill="red" r="8" /><circle cx="596" cy="139" fill="red" r="8" /><circle cx="412" cy="139" fill="red" r="8" /><circle cx="378" cy="139" fill="red" r="8" /><circle cx="875" cy="194" fill="red" r="8" /><circle cx="263" cy="118" fill="red" r="8" /><circle cx="594" cy="100" fill="red" r="8" /><circle cx="410" cy="102" fill="red" r="8" /><circle cx="382" cy="102" fill="red" r="8" /><circle cx="312" cy="102" fill="red" r="8" /><circle cx="560" cy="100" fill="red" r="8" /><circle cx="280" cy="100" fill="red" r="8" /><circle cx="796" cy="98" fill="red" r="8" /><circle cx="762" cy="94" fill="red" r="8" /><circle cx="941" cy="53" fill="red" r="8" /><circle cx="412" cy="36" fill="red" r="8" /><circle cx="775" cy="41" fill="red" r="8" /></svg>