<?xml version="1.0" encoding="utf-8" ?>
<svg baseProfile="full" height="560px" version="1.1" viewBox="0 0 960 560" width="960px" xmlns="http://www.w3.org/2000/svg" xmlns:ev="http://www.w3.org/2001/xml-events" xmlns:xlink="http://www.w3.org/1999/xlink"><defs /><circle cx="344" cy="535" fill="green" r="8" /><circle cx="50" cy="486" fill="green" r="8" /><circle cx="909" cy="467" fill="green" r="8" /><circle cx="882" cy="453" fill="green" r="8" /><circle cx="86" cy="449" fill="green" r="8" /><circle cx="50" cy="447" fill="green" r="8" /><circle cx="254" cy="445" fill="green" r="8" /><circle cx="167" cy="451" fill="green" r="8" /><circle cx="766" cy="402" fill="green" r="8" /><circle cx="882" cy="383" fill="green" r="8" /><circle cx="779" cy="363" fill="green" r="8" /><circle cx="154" cy="346" fill="green" r="8" /><circle cx="858" cy="338" fill="green" r="8" /><circle cx="143" cy="281" fill="green" r="8" /><circle cx="854" cy="272" fill="green" r="8" /><circle cx="822" cy="274" fill="green" r="8" /><circle cx="677" cy="172" fill="green" r="8" /><circle cx="640" cy="176" fill="green" r="8" /><circle cx="150" cy="176" fill="green" r="8" /><circle cx="112" cy="172" fill="green" r="8" /><circle cx="713" cy="170" fill="green" r="8" /><circle cx="75" cy="170" fill="green" r="8" /><circle cx="416" cy="53" fill="green" r="8" /><circle cx="444" cy="47" fill="green" r="8" /><circle cx="856" cy="34" fill="green" r="8" /></svg>